<svg xmlns="http://www.w3.org/2000/svg" xmlns:xlink="http://www.w3.org/1999/xlink">

<!-- phone-icon -->
<symbol id="phone-icon" viewBox="0 0 33.634 33.634">
  <g>
    <g>
      <path d="M30.935,22.077a19.1,19.1,0,0,1-6-.955,2.641,2.641,0,0,0-2.666.562L18.49,24.539a20.9,20.9,0,0,1-9.4-9.395l2.771-3.683a2.719,2.719,0,0,0,.669-2.754A19.125,19.125,0,0,1,11.574,2.7,2.7,2.7,0,0,0,8.876,0H2.7A2.7,2.7,0,0,0,0,2.7,30.97,30.97,0,0,0,30.935,33.634a2.7,2.7,0,0,0,2.7-2.7V24.776A2.7,2.7,0,0,0,30.935,22.077Z" fill="currentColor"/>
    </g>
  </g>
</symbol>
<!-- abulance-icon -->
<symbol id="abulance-icon" viewBox="0 0 30.578 24.462">
  <path d="M29.813,16.818h-.764V11.653a2.293,2.293,0,0,0-.674-1.62L23.6,5.26a2.293,2.293,0,0,0-1.62-.674H19.875V2.293A2.294,2.294,0,0,0,17.582,0H2.293A2.294,2.294,0,0,0,0,2.293V17.582a2.294,2.294,0,0,0,2.293,2.293h.764a4.587,4.587,0,0,0,9.173,0h6.116a4.587,4.587,0,0,0,9.173,0h2.293a.767.767,0,0,0,.764-.764V17.582A.767.767,0,0,0,29.813,16.818ZM7.644,22.169a2.293,2.293,0,1,1,2.293-2.293A2.294,2.294,0,0,1,7.644,22.169Zm6.88-11.849a.383.383,0,0,1-.382.382H11.467v2.676a.383.383,0,0,1-.382.382H8.791a.383.383,0,0,1-.382-.382V10.7H5.733a.383.383,0,0,1-.382-.382V8.027a.383.383,0,0,1,.382-.382H8.409V4.969a.383.383,0,0,1,.382-.382h2.293a.383.383,0,0,1,.382.382V7.644h2.676a.383.383,0,0,1,.382.382Zm8.409,11.849a2.293,2.293,0,1,1,2.293-2.293A2.294,2.294,0,0,1,22.933,22.169Zm3.822-9.938h-6.88V6.88h2.107l4.773,4.773Z" fill="#fff"/>
</symbol>
<!-- medical-icon -->
<symbol id="medical-icon" viewBox="0 0 35.406 35.409">
  <g>
    <path d="M17.7,0a17.7,17.7,0,1,0,17.7,17.7A17.723,17.723,0,0,0,17.7,0Zm0,32.589A14.887,14.887,0,1,1,32.589,17.7,14.9,14.9,0,0,1,17.7,32.589Z" transform="translate(-0.001)" fill="#fff"/>
    <path d="M18.728,12.109V7.268A1.508,1.508,0,0,0,17.219,5.76H13.956a1.508,1.508,0,0,0-1.507,1.508v4.84H7.606A1.508,1.508,0,0,0,6.1,13.617v3.332a1.508,1.508,0,0,0,1.507,1.508h4.841V23.3a1.508,1.508,0,0,0,1.507,1.508h3.264A1.508,1.508,0,0,0,18.727,23.3V18.458h4.84a1.509,1.509,0,0,0,1.508-1.508V13.617a1.508,1.508,0,0,0-1.508-1.508Z" transform="translate(2.45 2.413)" fill="#fff"/>
  </g>
</symbol>
<!-- call-icon -->
<symbol id="call-icon" viewBox="0 0 21.293 35.489">
  <g>
    <g>
      <path d="M116.6,0V2.366h-7.1V0h-7.1V35.489h21.293V0Zm-3.549,33.714a1.774,1.774,0,1,1,1.774-1.774A1.774,1.774,0,0,1,113.047,33.714Zm8.281-5.323H104.766V4.732h16.561V28.391Z" transform="translate(-102.4)" fill="#fff"/>
    </g>
  </g>
  <g transform="translate(4.732 10.647)">
    <g>
      <path d="M178.948,157.149V153.6h-4.732v3.549h-3.549v4.732h3.549v3.549h4.732v-3.549H182.5v-4.732Z" transform="translate(-170.667 -153.6)" fill="#fff"/>
    </g>
  </g>
</symbol>
<!-- night-call-icon -->
<symbol id="night-call-icon" viewBox="0 0 33.645 28.85">
  <path d="M20.715,21.071c-.037,0-.082-.007-.121-.007a5.1,5.1,0,0,0-.585.022,6.908,6.908,0,0,0-13.642,1.5c0,.233.015.458.037.684A4.673,4.673,0,0,0,6.78,32.58H20.715a5.755,5.755,0,0,0,0-11.509Z" transform="translate(-2.25 -3.729)" fill="#fff"/>
  <path d="M33.124,22.634c-.188.007-.376.015-.571.015a11.817,11.817,0,0,1-8.285-3.328A11.1,11.1,0,0,1,21.977,6.393l.878-1.442a.3.3,0,0,0-.308-.451,13.208,13.208,0,0,0-1.743.473,12.163,12.163,0,0,0-8.542,9.713c.1-.007.218-.007.323-.007a8.738,8.738,0,0,1,8.054,5.378A7.434,7.434,0,0,1,25.35,22.3a7.554,7.554,0,0,1,2.178,5.311c0,.173-.007.345-.015.511A12.46,12.46,0,0,0,34,24.226c.36-.413.849-.962,1.15-1.39a.3.3,0,0,0-.285-.473c-.511.075-1.194.24-1.743.27Z" transform="translate(-1.565 -4.497)" fill="#fff"/>
</symbol>
<!-- checked-icon -->
<symbol id="checked-icon" viewBox="0 0 36.208 36.208">
  <g>
    <path d="M18.1,0a18.1,18.1,0,1,0,18.1,18.1A18.124,18.124,0,0,0,18.1,0Zm8.5,16.089L18.2,24.5a2.361,2.361,0,0,1-3.339,0L9.994,19.631a2.361,2.361,0,1,1,3.339-3.339l3.2,3.2,6.738-6.738a2.361,2.361,0,0,1,3.339,3.339Z" fill="#fff"/>
  </g>
</symbol>
<!-- edit-icon -->
<symbol id="edit-icon" viewBox="0 0 5.889 7.361">
  <path id="edit" d="M6.368,9.625h5.153a.368.368,0,0,1,0,.736H6.368a.368.368,0,0,1,0-.736ZM6,7.785,9.68,4.1l1.1,1.1L7.1,8.889H6Zm4.048-4.048L10.785,3l1.1,1.1-.737.737Z" transform="translate(-6 -3)" fill="currentColor" fill-rule="evenodd"/>
</symbol>
<!-- message-icon -->
<symbol id="message-icon" viewBox="0 0 14.702 14.531">
  <g transform="translate(-3 -3)" opacity="0.8">
    <path d="M16.232,3H4.47A1.471,1.471,0,0,0,3,4.47v8.821a1.471,1.471,0,0,0,1.47,1.47H6.675v2.769l4.614-2.769h4.942a1.471,1.471,0,0,0,1.47-1.47V4.47A1.471,1.471,0,0,0,16.232,3Zm0,10.291H10.883L8.146,14.933V13.291H4.47V4.47H16.232Z" fill="#fff"/>
    <path d="M10.5,10.5h7.351v1.47H10.5Zm0,2.94h5.146v1.47H10.5Z" transform="translate(-3.825 -3.825)" fill="#fff"/>
  </g>
</symbol>
<!-- alert-icon -->
<symbol id="alert-icon" viewBox="0 0 20.719 16.596">
  <g id="signal" transform="translate(-2 -68.999)" opacity="0.803">
    <g transform="translate(0 68.999)">
      <g>
        <path d="M77.775,128.687a6.177,6.177,0,0,1,1.82-4.4.888.888,0,0,0-1.255-1.256,8,8,0,0,0,0,11.3.888.888,0,0,0,1.255-1.256A6.177,6.177,0,0,1,77.775,128.687Z" transform="translate(-70.628 -120.389)" fill="#fff"/>
        <path d="M1.775,77.3a9.531,9.531,0,0,1,2.807-6.782A.888.888,0,1,0,3.327,69.26a11.372,11.372,0,0,0,0,16.076.888.888,0,0,0,1.255-1.256A9.531,9.531,0,0,1,1.775,77.3Z" transform="translate(2 -69)" fill="#fff"/>
        <path d="M155.575,151.932a3.578,3.578,0,1,0,3.575,3.578A3.581,3.581,0,0,0,155.575,151.932Zm0,5.779a2.2,2.2,0,1,1,2.2-2.2A2.2,2.2,0,0,1,155.575,157.711Z" transform="translate(-143.216 -147.212)" fill="#fff"/>
        <path d="M404.391,69.26a.888.888,0,1,0-1.255,1.256,9.6,9.6,0,0,1,0,13.564.888.888,0,0,0,1.255,1.256,11.372,11.372,0,0,0,0-16.076Z" transform="translate(-384.999 -68.999)" fill="#fff"/>
        <path d="M350.651,123.036a.888.888,0,1,0-1.255,1.256,6.219,6.219,0,0,1,0,8.791.888.888,0,1,0,1.255,1.256,8,8,0,0,0,0-11.3Z" transform="translate(-333.644 -120.389)" fill="#fff"/>
      </g>
    </g>
  </g>
</symbol>
<!-- bell-icon -->
<symbol id="bell-icon" viewBox="0 0 14.208 16.5">
  <path d="M6.6,15.75A1.489,1.489,0,0,1,5.512,15.3a1.468,1.468,0,0,1-.455-1.073H8.15A1.467,1.467,0,0,1,7.695,15.3,1.491,1.491,0,0,1,6.6,15.75Zm5.039-4.657,1.564,1.564v.764H0v-.764l1.564-1.564V6.836A4.895,4.895,0,0,1,2.656,3.688,4.92,4.92,0,0,1,5.422,1.924V1.414A1.1,1.1,0,0,1,5.767.577,1.173,1.173,0,0,1,6.6.25a1.111,1.111,0,0,1,.819.327,1.133,1.133,0,0,1,.327.837v.51a4.929,4.929,0,0,1,2.8,1.765,4.895,4.895,0,0,1,1.092,3.147v4.257Zm-1.564.8V6.836A3.478,3.478,0,0,0,6.586,3.343,3.371,3.371,0,0,0,4.112,4.361,3.368,3.368,0,0,0,3.093,6.836v5.057Z" transform="translate(0.5 0.25)" fill="currentColor" stroke="rgba(0,0,0,0)" stroke-miterlimit="10" stroke-width="1" opacity="0.799"/>
</symbol>
<!-- book-icon -->
<symbol id="book-icon" viewBox="0 0 13.778 13.089">
  <path d="M16.089,4.5H11.267a2.053,2.053,0,0,0-1.378.537A2.053,2.053,0,0,0,8.511,4.5H3.689A.689.689,0,0,0,3,5.189V15.522a.689.689,0,0,0,.689.689H7.656a1.388,1.388,0,0,1,.974.4l.772.772c.006.006.015.008.021.015a.713.713,0,0,0,.2.135h0a.686.686,0,0,0,.525,0h0a.713.713,0,0,0,.2-.135c.006-.006.015-.008.021-.015l.772-.772a1.388,1.388,0,0,1,.975-.4h3.967a.689.689,0,0,0,.689-.689V5.189A.689.689,0,0,0,16.089,4.5ZM7.656,14.833H4.378V5.878H8.511a.689.689,0,0,1,.689.689v8.742A2.778,2.778,0,0,0,7.656,14.833Zm7.745,0H12.122a2.779,2.779,0,0,0-1.544.474V6.567a.689.689,0,0,1,.689-.689H15.4Z" transform="translate(-3 -4.5)" fill="#fff"/>
</symbol>
<!-- search-icon -->
<symbol id="search-icon" viewBox="0 0 12.368 12.368">
  <g transform="translate(-4 -4)">
    <path d="M14,9.248A4.748,4.748,0,1,1,9.248,4.5,4.748,4.748,0,0,1,14,9.248Z" transform="translate(0 0)" fill="none" stroke="#bababa" stroke-linecap="round" stroke-linejoin="round" stroke-width="1"/>
    <path d="M28.035,28.035l-3.06-3.06" transform="translate(-12.374 -12.374)" fill="none" stroke="#bababa" stroke-linecap="round" stroke-linejoin="round" stroke-width="1"/>
  </g>
</symbol>
<!-- close-icon -->
<symbol id="close-icon" viewBox="0 0 10.414 10.414">
  <g transform="translate(0.707 0.71)">
    <line x1="9" y1="9" transform="translate(0 -0.003)" fill="none" stroke="currentColor" stroke-linecap="round" stroke-width="1"/>
    <line y1="9" x2="9" transform="translate(0 -0.003)" fill="none" stroke="currentColor" stroke-linecap="round" stroke-width="1"/>
  </g>
</symbol>

<!-- close-red-icon -->
<symbol id="close-red-icon" viewBox="0 0 9.205 9.205">
  <g transform="translate(1.061 1.061)">
    <line x1="7.083" y1="7.083" transform="translate(0 0)" fill="none" stroke="#eb4e4e" stroke-linecap="round" stroke-width="1.5"/>
    <line y1="7.083" x2="7.083" transform="translate(0 0)" fill="none" stroke="#eb4e4e" stroke-linecap="round" stroke-width="1.5"/>
  </g>
</symbol>
<!-- success-tick-icon -->
<symbol id="success-tick-icon"  viewBox="0 0 12.053 9.205">
  <g transform="translate(3.909 1.061)">
    <line x1="2.855" y1="3.542" transform="translate(-2.854 3.541)" fill="none" stroke="#68e16f" stroke-linecap="round" stroke-width="1.5"/>
    <line y1="7.083" x2="7.083" transform="translate(0 0)" fill="none" stroke="#68e16f" stroke-linecap="round" stroke-width="1.5"/>
  </g>
</symbol>
<!-- calendar-icon -->
<symbol id="calendar-icon" viewBox="0 0 11.321 12.578">
  <path d="M8.274,8.66H7.016V9.918H8.274Zm2.516,0H9.531V9.918h1.258Zm2.516,0H12.047V9.918H13.3Zm1.258-4.4h-.629V3H12.676V4.258H7.645V3H6.387V4.258H5.758A1.252,1.252,0,0,0,4.506,5.516l-.006,8.8a1.257,1.257,0,0,0,1.258,1.258h8.8a1.262,1.262,0,0,0,1.258-1.258v-8.8A1.262,1.262,0,0,0,14.563,4.258Zm0,10.063h-8.8V7.4h8.8Z" transform="translate(-4.5 -3)" fill="#888"/>
</symbol>
<!-- menu-sidebar -->
<symbol id="menu-icon" viewBox="0 0 29 20">
  <g transform="translate(-3.5 -8)">
      <path d="M4.5,18h27" fill="currentColor" stroke="currentColor" stroke-linecap="round" stroke-linejoin="round" stroke-width="2"></path>
      <path d="M4.5,9h27" fill="currentColor" stroke="currentColor" stroke-linecap="round" stroke-linejoin="round" stroke-width="2"></path>
      <path d="M4.5,27h27" fill="currentColor" stroke="currentColor" stroke-linecap="round" stroke-linejoin="round" stroke-width="2"></path>
  </g>
</symbol>
<!--dashboard-icon -->
  <symbol id="dashboard-icon" viewBox="0 0 24 24" version="1.1">
      <g stroke="none" stroke-width="1" fill="none" fill-rule="evenodd">
          <polygon points="0 0 24 0 24 24 0 24"></polygon>
          <path d="M12.9336061,16.072447 L19.36,10.9564761 L19.5181585,10.8312381 C20.1676248,10.3169571 20.2772143,9.3735535 19.7629333,8.72408713 C19.6917232,8.63415859 19.6104327,8.55269514 19.5206557,8.48129411 L12.9336854,3.24257445 C12.3871201,2.80788259 11.6128799,2.80788259 11.0663146,3.24257445 L4.47482784,8.48488609 C3.82645598,9.00054628 3.71887192,9.94418071 4.23453211,10.5925526 C4.30500305,10.6811601 4.38527899,10.7615046 4.47382636,10.8320511 L4.63,10.9564761 L11.0659024,16.0730648 C11.6126744,16.5077525 12.3871218,16.5074963 12.9336061,16.072447 Z" fill="currentColor" fill-rule="nonzero"></path>
          <path d="M11.0563554,18.6706981 L5.33593024,14.122919 C4.94553994,13.8125559 4.37746707,13.8774308 4.06710397,14.2678211 C4.06471678,14.2708238 4.06234874,14.2738418 4.06,14.2768747 L4.06,14.2768747 C3.75257288,14.6738539 3.82516916,15.244888 4.22214834,15.5523151 C4.22358765,15.5534297 4.2250303,15.55454 4.22647627,15.555646 L11.0872776,20.8031356 C11.6250734,21.2144692 12.371757,21.2145375 12.909628,20.8033023 L19.7677785,15.559828 C20.1693192,15.2528257 20.2459576,14.6784381 19.9389553,14.2768974 C19.9376429,14.2751809 19.9363245,14.2734691 19.935,14.2717619 L19.935,14.2717619 C19.6266937,13.8743807 19.0546209,13.8021712 18.6572397,14.1104775 C18.654352,14.112718 18.6514778,14.1149757 18.6486172,14.1172508 L12.9235044,18.6705218 C12.377022,19.1051477 11.6029199,19.1052208 11.0563554,18.6706981 Z" fill="currentColor" opacity="0.3"></path>
      </g>
  </symbol>
<!-- contact-user-icon -->
<symbol id="contact-user-icon" viewBox="0 0 34.875 34.875">
  <path d="M17.438.563A17.438,17.438,0,1,0,34.875,18,17.434,17.434,0,0,0,17.438.563Zm0,6.75A6.188,6.188,0,1,1,11.25,13.5,6.188,6.188,0,0,1,17.438,7.313Zm0,24.188a13.474,13.474,0,0,1-10.3-4.8,7.839,7.839,0,0,1,6.926-4.2,1.72,1.72,0,0,1,.5.077,9.309,9.309,0,0,0,2.876.485,9.274,9.274,0,0,0,2.876-.485,1.72,1.72,0,0,1,.5-.077,7.839,7.839,0,0,1,6.926,4.2A13.474,13.474,0,0,1,17.438,31.5Z" transform="translate(0 -0.563)" fill="#fff"/>
</symbol>
<!-- privious-arrow-icon -->
<symbol id="privious-arrow-icon" viewBox="0 0 11.616 11.616">
  <g transform="translate(5.808 10.616) rotate(-135)">
    <path d="M0,6.8,6.8,0" transform="translate(0 0)" fill="none" stroke="#4762d1" stroke-linecap="round" stroke-linejoin="round" stroke-width="1"/>
    <path d="M6.8,6.8V0H0" transform="translate(0 0)" fill="none" stroke="#4762d1" stroke-linecap="round" stroke-linejoin="round" stroke-width="1"/>
  </g>
</symbol>
<!-- next-arrow-icon -->
<symbol id="next-arrow-icon" viewBox="0 0 11.616 11.616">
  <g transform="translate(-13.849 5.808) rotate(-45)">
    <path d="M10.5,10.5l6.8,6.8" fill="none" stroke="#4762d1" stroke-linecap="round" stroke-linejoin="round" stroke-width="1"/>
    <path d="M17.3,10.5v6.8H10.5" fill="none" stroke="#4762d1" stroke-linecap="round" stroke-linejoin="round" stroke-width="1"/>
  </g>
</symbol>
<!-- camra-icon -->
<symbol id="camra-icon" viewBox="0 0 7.257 6.221">
  <g transform="translate(-2.25 -4.5)">
    <path d="M15.611,16.278a1.021,1.021,0,1,1-1.021-1.021A1.021,1.021,0,0,1,15.611,16.278Z" transform="translate(-8.712 -8.279)" fill="currentColor"/>
    <path d="M8.859,5.018H7.434L6.915,4.5H4.842l-.518.518H2.9a.648.648,0,0,0-.648.648v4.406a.648.648,0,0,0,.648.648H8.859a.648.648,0,0,0,.648-.648V5.666A.648.648,0,0,0,8.859,5.018Zm-2.981,4.8A1.814,1.814,0,1,1,7.693,8,1.814,1.814,0,0,1,5.879,9.813Z" fill="currentColor"/>
</g>
</symbol>
  <!-- siren-icon -->
<symbol id="siren-icon" viewBox="0 0 33.684 30">
  <path d="M98.127,74.645a7.671,7.671,0,1,1,1.974,0V79.8h10.05V67.037a11.037,11.037,0,1,0-22.074,0V79.8h10.05Z" transform="translate(-82.282 -56)" fill="#fff"/>
  <path d="M1.589,447.815v2.249H0v1.974H33.684v-1.974H32.095v-2.249Z" transform="translate(0 -422.038)" fill="#fff"/>
  <path d="M172.7,143.906a3.283,3.283,0,1,1,4.27,3.131v2.4a5.624,5.624,0,1,0-1.974,0v-2.4A3.289,3.289,0,0,1,172.7,143.906Z" transform="translate(-159.148 -132.869)" fill="#fff"/>
  <circle cx="1.309" cy="1.309" r="1.309" transform="translate(15.522 9.728)" fill="#fff"/>
</symbol>
<!-- fire-icon -->
<symbol id="fire-icon" viewBox="0 0 21.403 32">
  <path d="M5.6,32C2.04,20.278,9.556,16,9.556,16a18.125,18.125,0,0,0,3.029,11.128,19.127,19.127,0,0,0,3.8-2.238A40.61,40.61,0,0,1,15.07,32a18.8,18.8,0,0,0,6.06-9.483c1.449-5.919-2.76-11.861-2.76-11.861a15.872,15.872,0,0,1-3.94,11.458,2.271,2.271,0,0,0,.345-.531c.5-1,1.3-3.591.831-9.6C14.945,3.554,7.308,0,7.308,0c.658,5.136-1.316,6.319-5.94,16.068S5.6,32,5.6,32Zm0,0" transform="translate(-0.031)" fill="#fff"/>
</symbol>
<!-- emergency-icon -->
<symbol id="emergency-icon" viewBox="0 0 17.744 29.574">
  <g>
    <g>
      <path d="M114.23,0V1.972h-5.915V0H102.4V29.574h17.744V0Zm-2.957,28.1a1.479,1.479,0,1,1,1.479-1.479A1.479,1.479,0,0,1,111.272,28.1Zm6.9-4.436h-13.8V3.943h13.8V23.659Z" transform="translate(-102.4)" fill="#fff"/>
    </g>
  </g>
  <g transform="translate(3.943 8.872)">
    <g>
      <path d="M177.568,156.557V153.6h-3.943v2.957h-2.957V160.5h2.957v2.957h3.943V160.5h2.957v-3.943Z" transform="translate(-170.667 -153.6)" fill="#fff"/>
    </g>
  </g>
</symbol>
<!-- edit-icon -->
<symbol id="edit-icon" viewBox="0 0 16.12 15.405">
  <g transform="translate(-3.75 -3.568)">
    <path d="M18,30h7.31" transform="translate(-6.19 -11.776)" fill="none" stroke="currentColor" stroke-linecap="round" stroke-linejoin="round" stroke-width="1.5"/>
    <path d="M15.465,4.823A1.723,1.723,0,0,1,17.9,7.259L7.749,17.412,4.5,18.224l.812-3.249Z" fill="none" stroke="currentColor" stroke-linecap="round" stroke-linejoin="round" stroke-width="1.5"/>
  </g>
</symbol>
<!-- delete-icon -->
<symbol id="delete-icon" viewBox="0 0 12.056 15.5">
  <path d="M8.361,18.278A1.727,1.727,0,0,0,10.083,20h6.889a1.727,1.727,0,0,0,1.722-1.722V7.944H8.361Zm2.118-6.131,1.214-1.214,1.834,1.826,1.826-1.826,1.214,1.214-1.826,1.826L16.568,15.8l-1.214,1.214-1.826-1.826L11.7,17.012,10.488,15.8l1.826-1.826Zm6.062-6.786L15.681,4.5H11.375l-.861.861H7.5V7.083H19.556V5.361Z" transform="translate(-7.5 -4.5)" fill="currentColor"/>
</symbol>
<!-- crose-delete-icon -->
<symbol id="crose-delete-icon" viewBox="0 0 12.056 15.5">
  <path d="M8.361,18.278A1.727,1.727,0,0,0,10.083,20h6.889a1.727,1.727,0,0,0,1.722-1.722V7.944H8.361Zm2.118-6.131,1.214-1.214,1.834,1.826,1.826-1.826,1.214,1.214-1.826,1.826L16.568,15.8l-1.214,1.214-1.826-1.826L11.7,17.012,10.488,15.8l1.826-1.826Zm6.062-6.786L15.681,4.5H11.375l-.861.861H7.5V7.083H19.556V5.361Z" transform="translate(-7.5 -4.5)" fill="#bababa"/>
</symbol>
<!-- back-arrow-icon -->
<symbol id="back-arrow-icon" viewBox="0 0 10.063 10.064">
  <g transform="translate(0 10.064) rotate(-90)">
    <g transform="translate(0)">
      <path d="M.211,5.541a.719.719,0,0,0,1.018,0l3.8-3.805,3.8,3.805A.72.72,0,1,0,9.854,4.524L5.541.211a.719.719,0,0,0-1.018,0L.211,4.524a.719.719,0,0,0,0,1.018Z" transform="translate(0 0)" fill="#4762d1" fill-rule="evenodd"/>
      <path d="M.719,8.625a.719.719,0,0,0,.719-.719V.719A.719.719,0,0,0,0,.719V7.906A.719.719,0,0,0,.719,8.625Z" transform="translate(4.313 1.438)" fill="#4762d1" fill-rule="evenodd"/>
    </g>
  </g>
</symbol>
<!-- ellipse-icon -->
<symbol id="ellipse-icon" viewBox="0 0 3 13">
  <g transform="translate(-5388 9440)">
    <circle cx="1.5" cy="1.5" r="1.5" transform="translate(5388 -9440)" fill="#bababa"/>
    <circle cx="1.5" cy="1.5" r="1.5" transform="translate(5388 -9435)" fill="#bababa"/>
    <circle cx="1.5" cy="1.5" r="1.5" transform="translate(5388 -9430)" fill="#bababa"/>
  </g>
</symbol>
<symbol id="heart-icon" viewBox="0 0 512.029 448.024">
  <path d="M320.2,243.8l-49.7,99.4a15.988,15.988,0,0,1-28.9-.6L184.7,216.3l-30,71.7H60.6L243.1,474.5a17.817,17.817,0,0,0,25.7,0L451.4,288H342.3l-22.1-44.2ZM473.7,73.9l-2.4-2.5a131,131,0,0,0-187.4,0L256,100,228.1,71.5a130.828,130.828,0,0,0-187.4,0l-2.4,2.4C-10.4,123.7-12.5,203,31,256H133.4l35.9-86.2a16.031,16.031,0,0,1,29.4-.4l58.2,129.3,49-97.9a15.978,15.978,0,0,1,28.6,0L362.1,256H481c43.5-53,41.4-132.3-7.3-182.1Z" transform="translate(0.015 -31.95)" fill="#fff"/>
</symbol>
<!-- question-circle-icon -->
<symbol id="question-circle-icon" fill="currentColor" class="bi bi-question-circle" viewBox="0 0 16 16" style="&#10;    color: red;&#10;">
  <path d="M8 15A7 7 0 1 1 8 1a7 7 0 0 1 0 14m0 1A8 8 0 1 0 8 0a8 8 0 0 0 0 16"/>
  <path d="M5.255 5.786a.237.237 0 0 0 .241.247h.825c.138 0 .248-.113.266-.25.09-.656.54-1.134 1.342-1.134.686 0 1.314.343 1.314 1.168 0 .635-.374.927-.965 1.371-.673.489-1.206 1.06-1.168 1.987l.003.217a.25.25 0 0 0 .25.246h.811a.25.25 0 0 0 .25-.25v-.105c0-.718.273-.927 1.01-1.486.609-.463 1.244-.977 1.244-2.056 0-1.511-1.276-2.241-2.673-2.241-1.267 0-2.655.59-2.75 2.286zm1.557 5.763c0 .533.425.927 1.01.927.609 0 1.028-.394 1.028-.927 0-.552-.42-.94-1.029-.94-.584 0-1.009.388-1.009.94"/>
</symbol>

<!-- info-icon -->
<symbol id="info-icon" viewBox="0 0 128 128">
<circle cx="64" cy="64" r="55" fill="#fff"/>
<path fill="currentColor" d="M64,122C32,122,6,96,6,64S32,6,64,6s58,26,58,58S96,122,64,122z M64,12c-28.7,0-52,23.3-52,52s23.3,52,52,52 s52-23.3,52-52S92.7,12,64,12z"/>
<path fill="currentColor" d="M64,90c-1.7,0-3-1.3-3-3V61c0-1.7,1.3-3,3-3s3,1.3,3,3v26C67,88.7,65.7,90,64,90z"/>
<path fill="currentColor" d="M64,49c-1.7,0-3-1.3-3-3v-5c0-1.7,1.3-3,3-3s3,1.3,3,3v5C67,47.7,65.7,49,64,49z"/>
</symbol>

</svg>
